<svg xmlns="http://www.w3.org/2000/svg" viewBox="0 0 800 600" width="800" height="600" role="img" aria-label="APP DEVELOPMENT placeholder image">
  <defs>
    <linearGradient id="bgGrad" x1="0%" y1="0%" x2="100%" y2="100%">
      <stop offset="0%" stop-color="#0d0d0d"/>
      <stop offset="55%" stop-color="#0c1228"/>
      <stop offset="100%" stop-color="#050505"/>
    </linearGradient>
    <radialGradient id="glow" cx="50%" cy="38%" r="65%">
      <stop offset="0%" stop-color="#7c3aed" stop-opacity="0.35"/>
      <stop offset="55%" stop-color="#7c3aed" stop-opacity="0.08"/>
      <stop offset="100%" stop-color="#7c3aed" stop-opacity="0"/>
    </radialGradient>
    <linearGradient id="iconGrad" x1="0%" y1="0%" x2="100%" y2="100%">
      <stop offset="0%" stop-color="#8b5cf6"/>
      <stop offset="100%" stop-color="#7c3aed"/>
    </linearGradient>
    <pattern id="grid" width="40" height="40" patternUnits="userSpaceOnUse">
      <path d="M40 0 L0 0 0 40" fill="none" stroke="#ffffff" stroke-opacity="0.035" stroke-width="1"/>
    </pattern>
  </defs>

  <rect width="800" height="600" fill="url(#bgGrad)"/>
  <rect width="800" height="600" fill="url(#grid)"/>
  <rect width="800" height="600" fill="url(#glow)"/>

  <!-- corner frame ticks -->
  <g stroke="#8b5cf6" stroke-opacity="0.35" stroke-width="1.5">
    <path d="M28,64 V28 H64"/>
    <path d="M772,64 V28 H736"/>
    <path d="M28,536 V572 H64"/>
    <path d="M772,536 V572 H736"/>
  </g>

  <!-- icon -->
  <g transform="translate(400,300)" opacity="0.92">
    
      <path d="M-22,-40 L-58,0 L-22,40" fill="none" stroke="url(#iconGrad)" stroke-width="6" stroke-linecap="round" stroke-linejoin="round"/>
      <path d="M22,-40 L58,0 L22,40" fill="none" stroke="url(#iconGrad)" stroke-width="6" stroke-linecap="round" stroke-linejoin="round"/>
      <path d="M6,-52 L-6,52" stroke="url(#iconGrad)" stroke-width="5" stroke-linecap="round" opacity="0.85"/>
    
  </g>

  <!-- index eyebrow -->

  <!-- label -->

  <!-- placeholder watermark -->
  <text x="736" y="46" text-anchor="end" font-family="Arial, Helvetica, sans-serif" font-size="11" letter-spacing="2"
        fill="#a0a0a8" fill-opacity="0.5">PLACEHOLDER</text>
</svg>